<svg xmlns="http://www.w3.org/2000/svg" viewBox="0 0 40 43" width="40" height="43"><defs></defs><g transform="matrix(1,0,0,1,-239.173668136,-37.108368041)">
<rect x="0" y="0" width="1920" height="1080" fill="none"/>
<g>
	<g>
		<g transform="matrix(0.066900006,0,0,0.066900006,233.174907823,-70.465012685)">
			<path d="M277.289557,2240.446183C215.237285,2221.600678 158.700771,2188.506133 110.897539,2142.08184 C86.995923,2119.099517 85.616984,2115.881992 95.269559,2104.850477 C99.866024,2099.334719 102.164256,2073.594518 104.462488,2006.945781 C109.978246,1839.63447 135.258801,1753.680582 198.230366,1689.330077 C238.219608,1648.421542 287.861426,1627.737452 357.727688,1623.140987 C403.232687,1620.383108 460.688495,1626.818159 487.807636,1638.30932 C502.975969,1644.284724 503.435615,1644.284724 520.442534,1626.358512 C534.691575,1611.190179 541.126625,1607.972654 554.916019,1607.972654 C586.171978,1607.972654 614.670059,1634.632149 620.645463,1669.56528 C622.484049,1681.975734 625.701574,1686.112552 632.136624,1686.112552 C647.304957,1686.112552 677.181977,1704.498411 686.374906,1719.666744 C704.760765,1749.543764 695.108189,1794.12947 666.610109,1808.37851 C658.796119,1812.515329 651.441775,1816.1925 650.982129,1816.652147 C650.062836,1817.111793 653.740008,1838.25553 659.255765,1863.536086 C665.690816,1895.711338 669.367987,1936.160226 671.206573,2003.268609 C673.504806,2087.843558 674.883745,2097.95578 682.238088,2103.471538 C687.294199,2106.689063 690.971371,2111.285527 690.971371,2113.58376 C690.971371,2119.559164 651.441775,2158.169466 624.782281,2177.934264 C583.873746,2208.730577 515.386423,2238.607597 461.607788,2249.179465 C445.979808,2252.39699 445.979808,2252.39699 448.27804,2207.351637 C450.576273,2163.685224 451.495566,2161.846638 463.90602,2152.653709 C491.484807,2133.348557 530.09511,2090.601437 543.424857,2063.482296 C571.003645,2009.244013 580.196574,1943.51457 562.730009,1927.88659 C542.045918,1909.041085 499.758444,1901.227095 412.885263,1898.928863 C319.577032,1896.170984 257.52476,1903.984974 224.889861,1921.911186 C206.963649,1931.563762 206.044356,1933.402347 204.665417,1957.303963 C200.068952,2028.549165 242.816073,2110.825881 304.868345,2150.815123 C327.850668,2165.52381 327.850668,2165.52381 327.850668,2198.158708 C327.850668,2216.08492 329.229607,2235.390071 330.608547,2241.365475 C334.285718,2254.695223 323.71385,2254.695223 277.289557,2240.446183 C277.289557,2240.446183 277.289557,2240.446183 277.289557,2240.446183 Z" fill="#11a0d9"/>
		</g>
	</g>
</g></g></svg>
